<?xml version="1.0" encoding="UTF-8" standalone="no"?>
<!-- Created with Inkscape (http://www.inkscape.org/) -->

<svg
   xmlns:dc="http://purl.org/dc/elements/1.1/"
   xmlns:cc="http://creativecommons.org/ns#"
   xmlns:rdf="http://www.w3.org/1999/02/22-rdf-syntax-ns#"
   xmlns:svg="http://www.w3.org/2000/svg"
   xmlns="http://www.w3.org/2000/svg"
   xmlns:sodipodi="http://sodipodi.sourceforge.net/DTD/sodipodi-0.dtd"
   xmlns:inkscape="http://www.inkscape.org/namespaces/inkscape"
   version="1.1"
   id="svg2"
   width="1344"
   height="1054"
   viewBox="0 0 1344 1054"
   sodipodi:docname="zhytomir.svg"
   inkscape:version="0.92.3 (2405546, 2018-03-11)">
  <metadata
     id="metadata8">
    <rdf:RDF>
      <cc:Work
         rdf:about="">
        <dc:format>image/svg+xml</dc:format>
        <dc:type
           rdf:resource="http://purl.org/dc/dcmitype/StillImage" />
        <dc:title></dc:title>
      </cc:Work>
    </rdf:RDF>
  </metadata>
  <defs
     id="defs6">
    <pattern
       y="0"
       x="0"
       height="6"
       width="6"
       patternUnits="userSpaceOnUse"
       id="EMFhbasepattern" />
    <pattern
       y="0"
       x="0"
       height="6"
       width="6"
       patternUnits="userSpaceOnUse"
       id="EMFhbasepattern-7" />
    <pattern
       y="0"
       x="0"
       height="6"
       width="6"
       patternUnits="userSpaceOnUse"
       id="EMFhbasepattern-5" />
    <pattern
       y="0"
       x="0"
       height="6"
       width="6"
       patternUnits="userSpaceOnUse"
       id="EMFhbasepattern-0" />
    <pattern
       y="0"
       x="0"
       height="6"
       width="6"
       patternUnits="userSpaceOnUse"
       id="EMFhbasepattern-75" />
  </defs>
  <sodipodi:namedview
     pagecolor="#ffffff"
     bordercolor="#666666"
     borderopacity="1"
     objecttolerance="10"
     gridtolerance="10"
     guidetolerance="10"
     inkscape:pageopacity="0"
     inkscape:pageshadow="2"
     inkscape:window-width="1920"
     inkscape:window-height="1005"
     id="namedview4"
     showgrid="false"
     borderlayer="true"
     inkscape:zoom="0.63331006"
     inkscape:cx="788.35865"
     inkscape:cy="561.74452"
     inkscape:window-x="-9"
     inkscape:window-y="-9"
     inkscape:window-maximized="1"
     inkscape:current-layer="svg2" />
  <path
     style="fill:#ffffff;fill-opacity:1;stroke:#ffffff;stroke-width:5;stroke-miterlimit:4;stroke-dasharray:none;stroke-dashoffset:0;stroke-opacity:1"
     d="M -7.8950272,-7.0916276 H 1354.7866 V 1066.632 H -7.8950272 Z"
     id="rect1077" />
  <path
     style="fill:none;stroke:#aa0000;stroke-width:5;stroke-linecap:butt;stroke-linejoin:miter;stroke-opacity:1;stroke-miterlimit:4;stroke-dasharray:none"
     d="m 1290.1451,811.99311 -1.6748,2.93088 -4.8848,5.02437 -4.8848,5.44306 -3.6287,8.23437 -0.2791,4.18697 4.187,4.18697 4.3265,0.97696 3.6287,-0.97696 2.7913,-4.18697 0.2792,-5.58262 0.2791,-142.63613 -0.5583,-5.44306 -2.3726,-2.93088 -2.0935,-1.53522 -5.0817,-0.50126 -75.0027,-3.15801 -12.6321,-0.7895 -24.6719,-6.31602 -53.2915,-19.14544 -30.7906,-13.22417 -15.0005,-12.43467 -35.7241,-5.28156 -72.01594,-11.72352 -100.48729,0.27913 -88.76377,-4.04741 -77.73808,-3.90783 -49.05734,1.11652 -5.58262,-0.13956 -3.55893,-1.11653 -1.88414,-1.74457 -3.00066,-5.72219 -73.55111,-151.49855 -2.51218,-2.93088 -3.21001,-0.97696 -4.74524,1.67479 -234.61088,120.29302 -6.41471,3.35539 -4.14489,0.19737 -2.66457,-0.69081 -1.97376,-2.17114 -2.56588,-5.32914 -95.56254,-191.85755 -2.09349,-1.95392 -2.09348,-0.4187 -2.23305,0.55827 -120.854582,61.13414 -15.395303,8.19109 -1.579005,1.67769 -0.394751,2.66457 0.394751,1.57901 13.717609,28.61947 0.176955,1.92481 -0.48848,3.55893 -1.605005,1.46544 -2.861097,0.90717 -3.69849,-0.20935 -1.95392,-1.39565 -0.97696,-2.30284 -0.139565,-3.27979 0.837394,-2.8611 2.861096,-4.11718 0.628046,-2.79132 0.348914,-5.23371"
     id="path817"
     inkscape:connector-curvature="0" />
  <path
     style="fill:none;stroke:#808080;stroke-width:5;stroke-linecap:butt;stroke-linejoin:miter;stroke-opacity:1;stroke-miterlimit:4;stroke-dasharray:none"
     d="m 853.84717,606.54934 3.55276,-3.15801 1.38163,-3.15801 v -62.37071 l 1.18426,-2.56588 2.3685,-1.57901 57.23895,-0.39475 2.17113,0.98688 1.77638,2.56588 1.18426,62.56809 1.97375,3.55276 4.14489,2.96064"
     id="path819"
     inkscape:connector-curvature="0" />
  <path
     style="fill:none;stroke:#808080;stroke-width:5;stroke-linecap:butt;stroke-linejoin:miter;stroke-opacity:1;stroke-miterlimit:4;stroke-dasharray:none"
     d="m 924.70504,599.44382 -0.98688,3.35539 -4.53964,3.55276"
     id="path821"
     inkscape:connector-curvature="0" />
  <path
     style="fill:none;stroke:#808080;stroke-width:5;stroke-linecap:butt;stroke-linejoin:miter;stroke-opacity:1;stroke-miterlimit:4;stroke-dasharray:none"
     d="m 858.78156,600.23332 1.77638,3.35539 3.75014,2.36851"
     id="path823"
     inkscape:connector-curvature="0" />
  <path
     style="fill:none;stroke:#808080;stroke-width:5;stroke-linecap:butt;stroke-linejoin:miter;stroke-opacity:1;stroke-miterlimit:4;stroke-dasharray:none"
     d="m 858.58419,597.07531 2.76326,-2.17113 9.47403,-2.76326 5.52652,-4.53964 0.98688,-4.73702 0.19737,-8.28977"
     id="path827"
     inkscape:connector-curvature="0" />
  <g
     aria-label=" "
     style="font-style:normal;font-variant:normal;font-weight:400;font-size:14.6875px;line-height:125%;font-family:Calibri;text-align:start;letter-spacing:0px;word-spacing:0px;text-anchor:start;fill:#000000;fill-opacity:1;stroke:none"
     id="text854" />
  <g
     aria-label="ТРАМВАЙНА СИСТЕМА 
 "
     style="font-style:normal;font-variant:normal;font-weight:400;font-size:26.6875px;line-height:125%;font-family:'Franklin Gothic Demi';text-align:start;letter-spacing:0px;word-spacing:0px;text-anchor:start;fill:#666666;fill-opacity:1;stroke:none"
     id="text884">
    <path
       d="m 33.657821,961.04016 h 5.904 v -27.408 h 9.312 v -4.944 h -24.432 v 4.944 h 9.216 z"
       style="font-style:normal;font-variant:normal;font-weight:600;font-stretch:normal;font-size:48px;font-family:'Myriad Pro';-inkscape-font-specification:'Myriad Pro Semi-Bold';fill:#666666"
       id="path1182" />
    <path
       d="m 52.684571,961.04016 h 5.856 v -12.192 c 0.768,0.144 1.776,0.192 2.88,0.192 4.176,0 7.872,-1.104 10.224,-3.456 1.824,-1.728 2.784,-4.272 2.784,-7.344 0,-3.024 -1.248,-5.568 -3.168,-7.152 -2.064,-1.728 -5.232,-2.64 -9.552,-2.64 -3.984,0 -6.912,0.288 -9.024,0.672 z m 5.856,-27.792 c 0.624,-0.144 1.776,-0.288 3.408,-0.288 4.08,0 6.576,1.92 6.576,5.52 0,3.792 -2.688,5.952 -7.104,5.952 -1.2,0 -2.16,-0.048 -2.88,-0.24 z"
       style="font-style:normal;font-variant:normal;font-weight:600;font-stretch:normal;font-size:48px;font-family:'Myriad Pro';-inkscape-font-specification:'Myriad Pro Semi-Bold';fill:#666666"
       id="path1184" />
    <path
       d="m 92.874071,951.87216 2.928,9.168 h 6.335999 l -10.511999,-32.352 h -7.536 l -10.368,32.352 h 6.096 l 2.784,-9.168 z m -9.312,-4.464 2.496,-7.968 c 0.576,-1.92 1.056,-4.176 1.536,-6.048 h 0.096 c 0.48,1.872 1.008,4.08 1.632,6.048 l 2.544,7.968 z"
       style="font-style:normal;font-variant:normal;font-weight:600;font-stretch:normal;font-size:48px;font-family:'Myriad Pro';-inkscape-font-specification:'Myriad Pro Semi-Bold';fill:#666666"
       id="path1186" />
    <path
       d="m 134.62057,961.04016 h 5.76 l -1.872,-32.352 h -7.68 l -4.464,12.96 c -1.248,3.792 -2.352,7.776 -3.216,11.28 h -0.144 c -0.816,-3.6 -1.824,-7.44 -2.976,-11.232 l -4.224,-13.008 h -7.776 l -2.16,32.352 h 5.52 l 0.72,-13.008 c 0.24,-4.416 0.432,-9.552 0.576,-13.824 h 0.096 c 0.864,4.08 2.016,8.496 3.264,12.624 l 4.32,13.824 h 4.56 l 4.704,-14.016 c 1.44,-4.08 2.784,-8.448 3.84,-12.432 h 0.144 c -0.048,4.416 0.192,9.456 0.384,13.632 z"
       style="font-style:normal;font-variant:normal;font-weight:600;font-stretch:normal;font-size:48px;font-family:'Myriad Pro';-inkscape-font-specification:'Myriad Pro Semi-Bold';fill:#666666"
       id="path1188" />
    <path
       d="m 146.34082,960.94416 c 1.488,0.192 3.984,0.432 7.248,0.432 5.904,0 9.696,-1.008 12,-3.024 1.872,-1.536 3.12,-3.792 3.12,-6.672 0,-4.464 -3.12,-7.152 -6.528,-8.016 v -0.096 c 3.504,-1.296 5.376,-4.032 5.376,-7.008 0,-2.736 -1.344,-4.848 -3.36,-6.048 -2.208,-1.536 -4.896,-2.064 -9.264,-2.064 -3.312,0 -6.72,0.288 -8.592,0.672 z m 5.856,-27.888 c 0.624,-0.144 1.632,-0.24 3.36,-0.24 3.744,0 6.048,1.392 6.048,4.416 0,2.736 -2.304,4.656 -6.384,4.656 h -3.024 z m 0,13.152 h 2.928 c 4.08,0 7.344,1.536 7.344,5.28 0,3.984 -3.36,5.424 -7.152,5.424 -1.344,0 -2.352,0 -3.12,-0.144 z"
       style="font-style:normal;font-variant:normal;font-weight:600;font-stretch:normal;font-size:48px;font-family:'Myriad Pro';-inkscape-font-specification:'Myriad Pro Semi-Bold';fill:#666666"
       id="path1190" />
    <path
       d="m 190.74907,951.87216 2.928,9.168 h 6.336 l -10.512,-32.352 h -7.536 l -10.368,32.352 h 6.096 l 2.784,-9.168 z m -9.312,-4.464 2.496,-7.968 c 0.576,-1.92 1.056,-4.176 1.536,-6.048 h 0.096 c 0.48,1.872 1.008,4.08 1.632,6.048 l 2.544,7.968 z"
       style="font-style:normal;font-variant:normal;font-weight:600;font-stretch:normal;font-size:48px;font-family:'Myriad Pro';-inkscape-font-specification:'Myriad Pro Semi-Bold';fill:#666666"
       id="path1192" />
    <path
       d="m 204.55957,928.68816 v 32.352 h 6.576 l 8.16,-13.68 c 2.064,-3.456 4.224,-7.488 5.76,-11.184 h 0.096 c -0.384,4.176 -0.432,8.304 -0.432,13.392 v 11.472 h 5.472 v -32.352 h -6 l -8.544,14.496 c -2.112,3.648 -4.224,7.536 -5.904,11.184 l -0.096,-0.048 c 0.24,-4.32 0.384,-9.072 0.384,-14.208 v -11.424 z m 6.144,-7.104 c 0.288,3.648 2.448,5.568 6.528,5.568 4.176,0 6.576,-1.872 6.816,-5.568 h -4.128 c -0.192,1.728 -0.768,2.928 -2.544,2.928 -1.872,0 -2.4,-1.248 -2.496,-2.928 z"
       style="font-style:normal;font-variant:normal;font-weight:600;font-stretch:normal;font-size:48px;font-family:'Myriad Pro';-inkscape-font-specification:'Myriad Pro Semi-Bold';fill:#666666"
       id="path1194" />
    <path
       d="m 236.99707,928.68816 v 32.352 h 5.904 v -14.256 h 13.68 v 14.256 h 5.904 v -32.352 h -5.904 v 12.96 h -13.68 v -12.96 z"
       style="font-style:normal;font-variant:normal;font-weight:600;font-stretch:normal;font-size:48px;font-family:'Myriad Pro';-inkscape-font-specification:'Myriad Pro Semi-Bold';fill:#666666"
       id="path1196" />
    <path
       d="m 285.99907,951.87216 2.928,9.168 h 6.336 l -10.512,-32.352 h -7.536 l -10.368,32.352 h 6.096 l 2.784,-9.168 z m -9.312,-4.464 2.496,-7.968 c 0.576,-1.92 1.056,-4.176 1.536,-6.048 h 0.096 c 0.48,1.872 1.008,4.08 1.632,6.048 l 2.544,7.968 z"
       style="font-style:normal;font-variant:normal;font-weight:600;font-stretch:normal;font-size:48px;font-family:'Myriad Pro';-inkscape-font-specification:'Myriad Pro Semi-Bold';fill:#666666"
       id="path1198" />
    <path
       d="m 331.97107,955.42416 c -1.536,0.72 -4.032,1.2 -6.432,1.2 -7.104,0 -11.28,-4.56 -11.28,-11.664 0,-7.776 4.752,-11.904 11.328,-11.904 2.688,0 4.8,0.576 6.336,1.248 l 1.296,-4.704 c -1.2,-0.624 -3.984,-1.44 -7.872,-1.44 -9.888,0 -17.28,6.432 -17.28,17.088 0,9.84 6.24,16.32 16.512,16.32 3.888,0 6.96,-0.768 8.352,-1.488 z"
       style="font-style:normal;font-variant:normal;font-weight:600;font-stretch:normal;font-size:48px;font-family:'Myriad Pro';-inkscape-font-specification:'Myriad Pro Semi-Bold';fill:#666666"
       id="path1200" />
    <path
       d="m 337.96582,928.68816 v 32.352 h 6.576 l 8.16,-13.68 c 2.064,-3.456 4.224,-7.488 5.76,-11.184 h 0.096 c -0.384,4.176 -0.432,8.304 -0.432,13.392 v 11.472 h 5.472 v -32.352 h -6 l -8.544,14.496 c -2.112,3.648 -4.224,7.536 -5.904,11.184 l -0.096,-0.048 c 0.24,-4.32 0.384,-9.072 0.384,-14.208 v -11.424 z"
       style="font-style:normal;font-variant:normal;font-weight:600;font-stretch:normal;font-size:48px;font-family:'Myriad Pro';-inkscape-font-specification:'Myriad Pro Semi-Bold';fill:#666666"
       id="path1202" />
    <path
       d="m 392.62732,955.42416 c -1.536,0.72 -4.032,1.2 -6.432,1.2 -7.104,0 -11.28,-4.56 -11.28,-11.664 0,-7.776 4.752,-11.904 11.328,-11.904 2.688,0 4.8,0.576 6.336,1.248 l 1.296,-4.704 c -1.2,-0.624 -3.984,-1.44 -7.872,-1.44 -9.888,0 -17.28,6.432 -17.28,17.088 0,9.84 6.24,16.32 16.512,16.32 3.888,0 6.96,-0.768 8.352,-1.488 z"
       style="font-style:normal;font-variant:normal;font-weight:600;font-stretch:normal;font-size:48px;font-family:'Myriad Pro';-inkscape-font-specification:'Myriad Pro Semi-Bold';fill:#666666"
       id="path1204" />
    <path
       d="m 406.03282,961.04016 h 5.904 v -27.408 h 9.312 v -4.944 h -24.432 v 4.944 h 9.216 z"
       style="font-style:normal;font-variant:normal;font-weight:600;font-stretch:normal;font-size:48px;font-family:'Myriad Pro';-inkscape-font-specification:'Myriad Pro Semi-Bold';fill:#666666"
       id="path1206" />
    <path
       d="m 443.15557,941.88816 h -12.192 v -8.352 h 12.912 v -4.848 h -18.816 v 32.352 h 19.536 v -4.848 h -13.632 v -9.504 h 12.192 z"
       style="font-style:normal;font-variant:normal;font-weight:600;font-stretch:normal;font-size:48px;font-family:'Myriad Pro';-inkscape-font-specification:'Myriad Pro Semi-Bold';fill:#666666"
       id="path1208" />
    <path
       d="m 477.74557,961.04016 h 5.76 l -1.872,-32.352 h -7.68 l -4.464,12.96 c -1.248,3.792 -2.352,7.776 -3.216,11.28 h -0.144 c -0.816,-3.6 -1.824,-7.44 -2.976,-11.232 l -4.224,-13.008 h -7.776 l -2.16,32.352 h 5.52 l 0.72,-13.008 c 0.24,-4.416 0.432,-9.552 0.576,-13.824 h 0.096 c 0.864,4.08 2.016,8.496 3.264,12.624 l 4.32,13.824 h 4.56 l 4.704,-14.016 c 1.44,-4.08 2.784,-8.448 3.84,-12.432 h 0.144 c -0.048,4.416 0.192,9.456 0.384,13.632 z"
       style="font-style:normal;font-variant:normal;font-weight:600;font-stretch:normal;font-size:48px;font-family:'Myriad Pro';-inkscape-font-specification:'Myriad Pro Semi-Bold';fill:#666666"
       id="path1210" />
    <path
       d="m 505.93657,951.87216 2.928,9.168 h 6.336 l -10.512,-32.352 h -7.536 l -10.368,32.352 h 6.096 l 2.784,-9.168 z m -9.312,-4.464 2.496,-7.968 c 0.576,-1.92 1.056,-4.176 1.536,-6.048 h 0.096 c 0.48,1.872 1.008,4.08 1.632,6.048 l 2.544,7.968 z"
       style="font-style:normal;font-variant:normal;font-weight:600;font-stretch:normal;font-size:48px;font-family:'Myriad Pro';-inkscape-font-specification:'Myriad Pro Semi-Bold';fill:#666666"
       id="path1212" />
  </g>
  <g
     aria-label="У ЖИТОМИРІ У 2019 РОЦІ"
     style="font-style:normal;font-weight:normal;font-size:16px;line-height:1.25;font-family:sans-serif;letter-spacing:0px;word-spacing:0px;fill:#666666;fill-opacity:1;stroke:none"
     id="text913">
    <path
       d="m 25.408082,986.8619 10.8,22.224 c 0.336,0.624 0.432,1.056 0.144,1.728 -0.816,1.824 -2.544,4.128 -5.28,4.128 -0.912,0 -1.536,-0.096 -2.016,-0.192 l -0.48,4.752 c 0.768,0.24 1.632,0.432 3.024,0.432 3.408,0 5.952,-1.488 8.064,-4.128 2.304,-3.024 4.368,-7.92 6.24,-12.624 l 6.384,-16.32 h -6.24 l -4.224,12.528 c -0.768,2.544 -1.344,4.608 -1.824,6.096 h -0.144 c -0.768,-1.92 -1.44,-3.84 -2.304,-5.952 l -5.472,-12.672 z"
       style="font-style:normal;font-variant:normal;font-weight:600;font-stretch:normal;font-size:48px;font-family:'Myriad Pro';-inkscape-font-specification:'Myriad Pro Semi-Bold';fill:#666666"
       id="path1145" />
    <path
       d="m 62.590082,986.9099 11.232,14.64 c -4.656,0.72 -6.72,3.84 -8.208,8.208 -1.056,3.072 -1.92,6.432 -3.312,9.504 h 6 c 1.008,-2.16 1.68,-5.04 2.4,-7.344 1.296,-3.888 2.832,-6.768 7.344,-6.768 h 1.296 v 14.112 h 5.712 v -14.112 h 1.248 c 4.512,0 6.096,2.88 7.344,6.768 0.72,2.304 1.392,5.184 2.448,7.344 h 5.999998 c -1.392,-3.072 -2.159998,-6.432 -3.263998,-9.648 -1.488,-4.368 -3.552,-7.584 -8.256,-8.064 l 11.231998,-14.64 h -6.863998 l -8.928,13.872 h -0.96 v -13.872 h -5.712 v 13.872 h -0.912 l -8.928,-13.872 z"
       style="font-style:normal;font-variant:normal;font-weight:600;font-stretch:normal;font-size:48px;font-family:'Myriad Pro';-inkscape-font-specification:'Myriad Pro Semi-Bold';fill:#666666"
       id="path1147" />
    <path
       d="m 105.82833,986.9099 v 32.352 h 6.576 l 8.16,-13.68 c 2.064,-3.456 4.224,-7.488 5.76,-11.184 h 0.096 c -0.384,4.176 -0.432,8.304 -0.432,13.392 v 11.472 h 5.472 v -32.352 h -6 l -8.544,14.496 c -2.112,3.648 -4.224,7.536 -5.904,11.184 l -0.096,-0.048 c 0.24,-4.32 0.384,-9.072 0.384,-14.208 v -11.424 z"
       style="font-style:normal;font-variant:normal;font-weight:600;font-stretch:normal;font-size:48px;font-family:'Myriad Pro';-inkscape-font-specification:'Myriad Pro Semi-Bold';fill:#666666"
       id="path1149" />
    <path
       d="m 144.45783,1019.2619 h 5.904 v -27.408 h 9.312 v -4.944 h -24.432 v 4.944 h 9.216 z"
       style="font-style:normal;font-variant:normal;font-weight:600;font-stretch:normal;font-size:48px;font-family:'Myriad Pro';-inkscape-font-specification:'Myriad Pro Semi-Bold';fill:#666666"
       id="path1151" />
    <path
       d="m 175.57083,986.3819 c -9.12,0 -15.36,7.008 -15.36,16.944 0,9.504 5.76,16.464 14.88,16.464 8.928,0 15.504,-6.192 15.504,-17.04 0,-9.216 -5.568,-16.368 -15.024,-16.368 z m -0.144,4.704 c 5.904,0 8.928,5.808 8.928,11.904 0,6.768 -3.216,12.096 -8.928,12.096 -5.664,0 -8.976,-5.28 -8.976,-11.856 0,-6.672 3.12,-12.144 8.976,-12.144 z"
       style="font-style:normal;font-variant:normal;font-weight:600;font-stretch:normal;font-size:48px;font-family:'Myriad Pro';-inkscape-font-specification:'Myriad Pro Semi-Bold';fill:#666666"
       id="path1153" />
    <path
       d="m 223.38933,1019.2619 h 5.76 l -1.872,-32.352 h -7.68 l -4.464,12.96 c -1.248,3.792 -2.352,7.776 -3.216,11.28 h -0.144 c -0.816,-3.6 -1.824,-7.44 -2.976,-11.232 l -4.224,-13.008 h -7.776 l -2.16,32.352 h 5.52 l 0.72,-13.008 c 0.24,-4.416 0.432,-9.552 0.576,-13.824 h 0.096 c 0.864,4.08 2.016,8.496 3.264,12.624 l 4.32,13.824 h 4.56 l 4.704,-14.016 c 1.44,-4.08 2.784,-8.448 3.84,-12.432 h 0.144 c -0.048,4.416 0.192,9.456 0.384,13.632 z"
       style="font-style:normal;font-variant:normal;font-weight:600;font-stretch:normal;font-size:48px;font-family:'Myriad Pro';-inkscape-font-specification:'Myriad Pro Semi-Bold';fill:#666666"
       id="path1155" />
    <path
       d="m 235.10958,986.9099 v 32.352 h 6.576 l 8.16,-13.68 c 2.064,-3.456 4.224,-7.488 5.76,-11.184 h 0.096 c -0.384,4.176 -0.432,8.304 -0.432,13.392 v 11.472 h 5.472 v -32.352 h -6 l -8.544,14.496 c -2.112,3.648 -4.224,7.536 -5.904,11.184 l -0.096,-0.048 c 0.24,-4.32 0.384,-9.072 0.384,-14.208 v -11.424 z"
       style="font-style:normal;font-variant:normal;font-weight:600;font-stretch:normal;font-size:48px;font-family:'Myriad Pro';-inkscape-font-specification:'Myriad Pro Semi-Bold';fill:#666666"
       id="path1157" />
    <path
       d="m 267.54708,1019.2619 h 5.856 v -12.192 c 0.768,0.144 1.776,0.192 2.88,0.192 4.176,0 7.872,-1.104 10.224,-3.456 1.824,-1.728 2.784,-4.272 2.784,-7.344 0,-3.024 -1.248,-5.568 -3.168,-7.152 -2.064,-1.728 -5.232,-2.64 -9.552,-2.64 -3.984,0 -6.912,0.288 -9.024,0.672 z m 5.856,-27.792 c 0.624,-0.144 1.776,-0.288 3.408,-0.288 4.08,0 6.576,1.92 6.576,5.52 0,3.792 -2.688,5.952 -7.104,5.952 -1.2,0 -2.16,-0.048 -2.88,-0.24 z"
       style="font-style:normal;font-variant:normal;font-weight:600;font-stretch:normal;font-size:48px;font-family:'Myriad Pro';-inkscape-font-specification:'Myriad Pro Semi-Bold';fill:#666666"
       id="path1159" />
    <path
       d="m 294.35958,986.9099 v 32.352 h 5.904 v -32.352 z"
       style="font-style:normal;font-variant:normal;font-weight:600;font-stretch:normal;font-size:48px;font-family:'Myriad Pro';-inkscape-font-specification:'Myriad Pro Semi-Bold';fill:#666666"
       id="path1161" />
    <path
       d="m 313.68933,986.8619 10.8,22.224 c 0.336,0.624 0.432,1.056 0.144,1.728 -0.816,1.824 -2.544,4.128 -5.28,4.128 -0.912,0 -1.536,-0.096 -2.016,-0.192 l -0.48,4.752 c 0.768,0.24 1.632,0.432 3.024,0.432 3.408,0 5.952,-1.488 8.064,-4.128 2.304,-3.024 4.368,-7.92 6.24,-12.624 l 6.384,-16.32 h -6.24 l -4.224,12.528 c -0.768,2.544 -1.344,4.608 -1.824,6.096 h -0.144 c -0.768,-1.92 -1.44,-3.84 -2.304,-5.952 l -5.472,-12.672 z"
       style="font-style:normal;font-variant:normal;font-weight:600;font-stretch:normal;font-size:48px;font-family:'Myriad Pro';-inkscape-font-specification:'Myriad Pro Semi-Bold';fill:#666666"
       id="path1163" />
    <path
       d="m 373.52733,1019.2619 v -4.896 h -12.816 v -0.096 l 2.736,-2.352 c 5.424,-5.04 9.36,-9.456 9.36,-14.928 0,-5.088 -3.36,-9.456 -10.272,-9.456 -3.936,0 -7.344,1.392 -9.6,3.216 l 1.728,4.176 c 1.584,-1.2 3.936,-2.592 6.672,-2.592 4.08,0 5.568,2.448 5.568,5.232 -0.048,4.128 -3.504,7.872 -10.848,14.688 l -3.696,3.408 v 3.6 z"
       style="font-style:normal;font-variant:normal;font-weight:600;font-stretch:normal;font-size:48px;font-family:'Myriad Pro';-inkscape-font-specification:'Myriad Pro Semi-Bold';fill:#666666"
       id="path1165" />
    <path
       d="m 389.03883,987.5339 c -7.296,0 -11.424,6.528 -11.424,16.224 0.048,9.504 3.888,16.032 11.088,16.032 7.44,0 11.376,-6.288 11.376,-16.32 0,-9.216 -3.504,-15.936 -11.04,-15.936 z m -0.144,4.512 c 3.552,0 5.28,4.272 5.28,11.52 0,7.488 -1.824,11.712 -5.28,11.712 -3.264,0 -5.376,-3.936 -5.328,-11.52 -0.048,-7.824 2.16,-11.712 5.328,-11.712 z"
       style="font-style:normal;font-variant:normal;font-weight:600;font-stretch:normal;font-size:48px;font-family:'Myriad Pro';-inkscape-font-specification:'Myriad Pro Semi-Bold';fill:#666666"
       id="path1167" />
    <path
       d="m 412.99833,1019.2619 h 5.712 v -31.2 h -4.944 l -7.584,3.744 1.008,4.464 5.712,-2.88 h 0.096 z"
       style="font-style:normal;font-variant:normal;font-weight:600;font-stretch:normal;font-size:48px;font-family:'Myriad Pro';-inkscape-font-specification:'Myriad Pro Semi-Bold';fill:#666666"
       id="path1169" />
    <path
       d="m 431.82183,1019.6939 c 0.864,0.048 2.208,0.048 3.552,-0.096 4.176,-0.288 7.92,-1.728 10.656,-4.272 3.216,-3.072 5.424,-7.824 5.424,-14.496 0,-7.584 -3.888,-13.296 -11.136,-13.296 -6.672,0 -11.28,5.184 -11.28,11.136 0,5.76 4.032,9.696 9.504,9.696 2.976,0 5.184,-1.008 6.768,-2.784 l 0.096,0.048 c -0.576,2.928 -1.968,5.28 -3.984,6.912 -1.728,1.392 -4.032,2.208 -6.336,2.4 -1.44,0.144 -2.352,0.192 -3.264,0.096 z m 8.208,-27.792 c 3.84,0 5.424,3.648 5.376,7.872 0,0.816 -0.144,1.296 -0.336,1.68 -0.912,1.488 -2.64,2.592 -5.04,2.592 -3.264,0 -5.088,-2.496 -5.136,-5.712 0,-3.792 2.16,-6.432 5.088,-6.432 z"
       style="font-style:normal;font-variant:normal;font-weight:600;font-stretch:normal;font-size:48px;font-family:'Myriad Pro';-inkscape-font-specification:'Myriad Pro Semi-Bold';fill:#666666"
       id="path1171" />
    <path
       d="m 466.39083,1019.2619 h 5.856 v -12.192 c 0.768,0.144 1.776,0.192 2.88,0.192 4.176,0 7.872,-1.104 10.224,-3.456 1.824,-1.728 2.784,-4.272 2.784,-7.344 0,-3.024 -1.248,-5.568 -3.168,-7.152 -2.064,-1.728 -5.232,-2.64 -9.552,-2.64 -3.984,0 -6.912,0.288 -9.024,0.672 z m 5.856,-27.792 c 0.624,-0.144 1.776,-0.288 3.408,-0.288 4.08,0 6.576,1.92 6.576,5.52 0,3.792 -2.688,5.952 -7.104,5.952 -1.2,0 -2.16,-0.048 -2.88,-0.24 z"
       style="font-style:normal;font-variant:normal;font-weight:600;font-stretch:normal;font-size:48px;font-family:'Myriad Pro';-inkscape-font-specification:'Myriad Pro Semi-Bold';fill:#666666"
       id="path1173" />
    <path
       d="m 506.60208,986.3819 c -9.12,0 -15.36,7.008 -15.36,16.944 0,9.504 5.76,16.464 14.88,16.464 8.928,0 15.504,-6.192 15.504,-17.04 0,-9.216 -5.568,-16.368 -15.024,-16.368 z m -0.144,4.704 c 5.904,0 8.928,5.808 8.928,11.904 0,6.768 -3.216,12.096 -8.928,12.096 -5.664,0 -8.976,-5.28 -8.976,-11.856 0,-6.672 3.12,-12.144 8.976,-12.144 z"
       style="font-style:normal;font-variant:normal;font-weight:600;font-stretch:normal;font-size:48px;font-family:'Myriad Pro';-inkscape-font-specification:'Myriad Pro Semi-Bold';fill:#666666"
       id="path1175" />
    <path
       d="m 526.67208,986.9099 v 32.352 h 22.56 l 0.336,8.016 h 4.56 l 0.336,-12.576 -3.072,-0.144 v -27.648 h -5.904 v 27.504 h -12.912 v -27.504 z"
       style="font-style:normal;font-variant:normal;font-weight:600;font-stretch:normal;font-size:48px;font-family:'Myriad Pro';-inkscape-font-specification:'Myriad Pro Semi-Bold';fill:#666666"
       id="path1177" />
    <path
       d="m 559.10958,986.9099 v 32.352 h 5.904 v -32.352 z"
       style="font-style:normal;font-variant:normal;font-weight:600;font-stretch:normal;font-size:48px;font-family:'Myriad Pro';-inkscape-font-specification:'Myriad Pro Semi-Bold';fill:#666666"
       id="path1179" />
  </g>
  <g
     aria-label="МАЙДАН "
     style="font-style:normal;font-variant:normal;font-weight:700;font-size:14.6875px;line-height:125%;font-family:Calibri;text-align:start;letter-spacing:0px;word-spacing:0px;text-anchor:start;fill:#666666;fill-opacity:1;stroke:none"
     id="text928">
    <path
       d="m 63.050732,510.35989 q 0,0.15625 -0.09375,0.28125 -0.07813,0.125 -0.3125,0.20313 -0.21875,0.0781 -0.59375,0.125 -0.375,0.0469 -0.953125,0.0469 -0.5625,0 -0.9375,-0.0469 -0.375,-0.0469 -0.59375,-0.125 -0.21875,-0.0781 -0.3125,-0.20313 -0.09375,-0.125 -0.09375,-0.28125 v -16.45312 h -0.03125 l -5.859375,16.4375 q -0.0625,0.20312 -0.203125,0.34375 -0.140625,0.125 -0.390625,0.20312 -0.234375,0.0781 -0.609375,0.0937 -0.375,0.0312 -0.90625,0.0312 -0.53125,0 -0.90625,-0.0469 -0.375,-0.0312 -0.625,-0.10938 -0.234375,-0.0937 -0.375,-0.21875 -0.140625,-0.125 -0.1875,-0.29687 l -5.65625,-16.4375 h -0.03125 v 16.45312 q 0,0.15625 -0.09375,0.28125 -0.07813,0.125 -0.3125,0.20313 -0.234375,0.0781 -0.609375,0.125 -0.359375,0.0469 -0.9375,0.0469 -0.5625,0 -0.9375,-0.0469 -0.375,-0.0469 -0.609375,-0.125 -0.21875,-0.0781 -0.3125,-0.20313 -0.07813,-0.125 -0.07813,-0.28125 v -18.01562 q 0,-0.79688 0.421875,-1.21875 0.421875,-0.42188 1.125,-0.42188 h 2.6875 q 0.71875,0 1.234375,0.125 0.515625,0.10938 0.890625,0.39063 0.375,0.26562 0.625,0.71875 0.25,0.4375 0.4375,1.09375 l 4.375,12.04687 h 0.0625 l 4.53125,-12.01562 q 0.203125,-0.65625 0.4375,-1.10938 0.25,-0.45312 0.5625,-0.73437 0.328125,-0.28125 0.765625,-0.39063 0.4375,-0.125 1.015625,-0.125 h 2.765625 q 0.421875,0 0.71875,0.10938 0.3125,0.10937 0.5,0.32812 0.203125,0.20313 0.296875,0.51563 0.109375,0.29687 0.109375,0.6875 z"
       style="font-style:normal;font-variant:normal;font-weight:700;font-size:32px;font-family:Calibri;fill:#666666"
       id="path1132" />
    <path
       d="m 84.050732,509.39114 q 0.1875,0.5625 0.234375,0.89063 0.04687,0.32812 -0.125,0.5 -0.171875,0.15625 -0.609375,0.1875 -0.4375,0.0469 -1.203125,0.0469 -0.796875,0 -1.25,-0.0312 -0.4375,-0.0156 -0.671875,-0.0781 -0.234375,-0.0781 -0.328125,-0.20313 -0.09375,-0.125 -0.15625,-0.32812 l -1.359375,-4.0625 h -7.59375 l -1.28125,3.95312 q -0.0625,0.21875 -0.171875,0.375 -0.09375,0.14063 -0.328125,0.23438 -0.21875,0.0781 -0.640625,0.10937 -0.40625,0.0312 -1.078125,0.0312 -0.71875,0 -1.125,-0.0469 -0.40625,-0.0469 -0.5625,-0.21875 -0.15625,-0.1875 -0.109375,-0.51563 0.04687,-0.32812 0.234375,-0.875 l 6.234375,-17.9375 q 0.09375,-0.26562 0.21875,-0.42187 0.125,-0.17188 0.390625,-0.25 0.28125,-0.0937 0.765625,-0.10938 0.484375,-0.0312 1.28125,-0.0312 0.921875,0 1.46875,0.0312 0.546875,0.0156 0.84375,0.10938 0.3125,0.0781 0.4375,0.25 0.140625,0.17187 0.234375,0.46875 z m -9.28125,-14.82812 h -0.01563 l -2.859375,8.59375 h 5.734375 z"
       style="font-style:normal;font-variant:normal;font-weight:700;font-size:32px;font-family:Calibri;fill:#666666"
       id="path1134" />
    <path
       d="m 103.31636,510.39114 q 0,0.15625 -0.10938,0.28125 -0.0937,0.10938 -0.32812,0.1875 -0.23438,0.0781 -0.64063,0.10938 -0.39062,0.0469 -0.98437,0.0469 -0.59375,0 -1,-0.0469 -0.390628,-0.0312 -0.625003,-0.10938 -0.21875,-0.0781 -0.3125,-0.1875 -0.09375,-0.125 -0.09375,-0.28125 v -10.65625 q 0,-0.60937 0.01563,-1.1875 0.01563,-0.59375 0.04687,-1.04687 h -0.03125 q -0.125,0.21875 -0.296875,0.51562 -0.171875,0.28125 -0.375,0.60938 -0.1875,0.3125 -0.40625,0.65625 -0.21875,0.32812 -0.4375,0.64062 l -7.03125,10.48438 q -0.125,0.17187 -0.265625,0.29687 -0.125,0.125 -0.34375,0.20313 -0.203125,0.0625 -0.515625,0.0781 -0.296875,0.0312 -0.78125,0.0312 -0.609375,0 -0.984375,-0.0469 -0.375,-0.0312 -0.59375,-0.10938 -0.203125,-0.0781 -0.28125,-0.20312 -0.07813,-0.125 -0.07813,-0.29688 v -19.125 q 0,-0.15625 0.09375,-0.26562 0.109375,-0.125 0.34375,-0.20313 0.25,-0.0781 0.640625,-0.10937 0.390625,-0.0469 0.984375,-0.0469 0.609375,0 1,0.0469 0.390625,0.0312 0.625,0.10937 0.234375,0.0781 0.328125,0.20313 0.09375,0.10937 0.09375,0.26562 v 10.71875 q 0,0.5 -0.01563,1.0625 -0.01563,0.5625 -0.04687,1.09375 h 0.03125 q 0.265625,-0.46875 0.671875,-1.125 0.40625,-0.65625 0.84375,-1.28125 l 7.03125,-10.48437 q 0.109375,-0.15625 0.234375,-0.26563 0.125,-0.125 0.328123,-0.20312 0.21875,-0.0781 0.53125,-0.10938 0.3125,-0.0312 0.79688,-0.0312 0.59375,0 0.95312,0.0469 0.375,0.0312 0.59375,0.10937 0.21875,0.0781 0.29688,0.20313 0.0937,0.10937 0.0937,0.28125 z m -2.39063,-25.10937 q 0,0.85937 -0.29687,1.65625 -0.29688,0.78125 -0.968753,1.39062 -0.65625,0.59375 -1.75,0.95313 -1.078125,0.35937 -2.65625,0.35937 -1.53125,0 -2.609375,-0.32812 -1.078125,-0.32813 -1.765625,-0.89063 -0.671875,-0.57812 -0.984375,-1.375 -0.3125,-0.8125 -0.3125,-1.76562 0,-0.23438 0.07813,-0.375 0.09375,-0.15625 0.296875,-0.25 0.203125,-0.0937 0.546875,-0.125 0.359375,-0.0469 0.890625,-0.0469 0.5,0 0.828125,0.0469 0.328125,0.0469 0.5,0.14062 0.171875,0.0937 0.234375,0.25 0.07813,0.14063 0.07813,0.34375 0,0.375 0.140625,0.70313 0.15625,0.32812 0.4375,0.57812 0.296875,0.23438 0.71875,0.39063 0.421875,0.15625 0.9375,0.15625 0.5,0 0.90625,-0.14063 0.40625,-0.15625 0.6875,-0.39062 0.296875,-0.25 0.4375,-0.57813 0.15625,-0.34375 0.15625,-0.75 0,-0.1875 0.0625,-0.32812 0.0625,-0.14063 0.234375,-0.23438 0.1875,-0.0937 0.484375,-0.14062 0.3125,-0.0469 0.78125,-0.0469 0.5625,0 0.921875,0.0469 0.375003,0.0312 0.593753,0.125 0.21875,0.0937 0.29687,0.25 0.0937,0.14062 0.0937,0.375 z m -12.937498,5.42187 z"
       style="font-style:normal;font-variant:normal;font-weight:700;font-size:32px;font-family:Calibri;fill:#666666"
       id="path1136" />
    <path
       d="m 126.37886,515.68802 q 0,0.15625 -0.0781,0.26562 -0.0781,0.10938 -0.28125,0.17188 -0.20312,0.0781 -0.54687,0.10937 -0.34375,0.0469 -0.89063,0.0469 -0.53125,0 -0.875,-0.0469 -0.32812,-0.0312 -0.54687,-0.10937 -0.20313,-0.0625 -0.29688,-0.17188 -0.0781,-0.10937 -0.0781,-0.26562 v -4.76563 h -13.45313 v 4.76563 q 0,0.15625 -0.0937,0.26562 -0.0781,0.10938 -0.29687,0.17188 -0.20313,0.0781 -0.54688,0.10937 -0.34375,0.0469 -0.875,0.0469 -0.53125,0 -0.875,-0.0469 -0.34375,-0.0312 -0.5625,-0.10937 -0.20312,-0.0625 -0.28125,-0.17188 -0.0781,-0.10937 -0.0781,-0.26562 v -7.26563 q -0.0312,-0.45312 0.15625,-0.64062 0.20312,-0.20313 0.59375,-0.20313 h 0.9375 q 0.375,-0.53125 0.70312,-1.09375 0.34375,-0.5625 0.65625,-1.32812 0.3125,-0.78125 0.60938,-1.84375 0.3125,-1.07813 0.60937,-2.625 0.29688,-1.54688 0.59375,-3.65625 0.3125,-2.125 0.64063,-4.98438 0.0937,-0.70312 0.35937,-1.01562 0.26563,-0.32813 0.8125,-0.32813 h 10.32813 q 0.54687,0 0.85937,0.32813 0.3125,0.3125 0.3125,0.96875 v 15.57812 h 1.71875 q 0.42188,0 0.59375,0.23438 0.17188,0.21875 0.17188,0.625 z m -6.57813,-21.67188 h -4.71875 q -0.28125,2.375 -0.5625,4.1875 -0.26562,1.79688 -0.54687,3.15625 -0.26563,1.35938 -0.54688,2.34375 -0.28125,0.98438 -0.57812,1.70313 -0.28125,0.71875 -0.59375,1.23437 -0.3125,0.51563 -0.64063,0.9375 h 8.1875 z"
       style="font-style:normal;font-variant:normal;font-weight:700;font-size:32px;font-family:Calibri;fill:#666666"
       id="path1138" />
    <path
       d="m 145.86323,509.39114 q 0.1875,0.5625 0.23438,0.89063 0.0469,0.32812 -0.125,0.5 -0.17188,0.15625 -0.60938,0.1875 -0.4375,0.0469 -1.20312,0.0469 -0.79688,0 -1.25,-0.0312 -0.4375,-0.0156 -0.67188,-0.0781 -0.23437,-0.0781 -0.32812,-0.20313 -0.0937,-0.125 -0.15625,-0.32812 l -1.35938,-4.0625 h -7.59375 l -1.28125,3.95312 q -0.0625,0.21875 -0.17187,0.375 -0.0937,0.14063 -0.32813,0.23438 -0.21875,0.0781 -0.64062,0.10937 -0.40625,0.0312 -1.07813,0.0312 -0.71875,0 -1.125,-0.0469 -0.40625,-0.0469 -0.5625,-0.21875 -0.15625,-0.1875 -0.10937,-0.51563 0.0469,-0.32812 0.23437,-0.875 l 6.23438,-17.9375 q 0.0937,-0.26562 0.21875,-0.42187 0.125,-0.17188 0.39062,-0.25 0.28125,-0.0937 0.76563,-0.10938 0.48437,-0.0312 1.28125,-0.0312 0.92187,0 1.46875,0.0312 0.54687,0.0156 0.84375,0.10938 0.3125,0.0781 0.4375,0.25 0.14062,0.17187 0.23437,0.46875 z m -9.28125,-14.82812 h -0.0156 l -2.85938,8.59375 h 5.73438 z"
       style="font-style:normal;font-variant:normal;font-weight:700;font-size:32px;font-family:Calibri;fill:#666666"
       id="path1140" />
    <path
       d="m 164.45698,510.35989 q 0,0.15625 -0.10937,0.28125 -0.0937,0.125 -0.32813,0.20313 -0.23437,0.0781 -0.625,0.125 -0.39062,0.0469 -0.98437,0.0469 -0.60938,0 -1.01563,-0.0469 -0.39062,-0.0469 -0.625,-0.125 -0.21875,-0.0781 -0.32812,-0.20313 -0.0937,-0.125 -0.0937,-0.28125 v -8.17187 h -7.5625 v 8.17187 q 0,0.15625 -0.0937,0.28125 -0.0937,0.125 -0.32813,0.20313 -0.23437,0.0781 -0.625,0.125 -0.39062,0.0469 -1,0.0469 -0.59375,0 -1,-0.0469 -0.39062,-0.0469 -0.625,-0.125 -0.23437,-0.0781 -0.34375,-0.20313 -0.0937,-0.125 -0.0937,-0.28125 v -19.09375 q 0,-0.15625 0.0937,-0.28125 0.10938,-0.125 0.34375,-0.20312 0.23438,-0.0781 0.625,-0.125 0.40625,-0.0469 1,-0.0469 0.60938,0 1,0.0469 0.39063,0.0469 0.625,0.125 0.23438,0.0781 0.32813,0.20312 0.0937,0.125 0.0937,0.28125 v 7.42188 h 7.5625 v -7.42188 q 0,-0.15625 0.0937,-0.28125 0.10937,-0.125 0.32812,-0.20312 0.23438,-0.0781 0.625,-0.125 0.40625,-0.0469 1.01563,-0.0469 0.59375,0 0.98437,0.0469 0.39063,0.0469 0.625,0.125 0.23438,0.0781 0.32813,0.20312 0.10937,0.125 0.10937,0.28125 z"
       style="font-style:normal;font-variant:normal;font-weight:700;font-size:32px;font-family:Calibri;fill:#666666"
       id="path1142" />
  </g>
  <g
     aria-label="ПЕРЕМОГИ"
     style="font-style:normal;font-weight:normal;font-size:16px;line-height:1.25;font-family:sans-serif;letter-spacing:0px;word-spacing:0px;fill:#666666;fill-opacity:1;stroke:none"
     id="text943">
    <path
       d="m 54.270252,543.45001 q 0,0.15625 -0.09375,0.28125 -0.09375,0.10938 -0.328125,0.1875 -0.234375,0.0781 -0.640625,0.10938 -0.390625,0.0469 -0.984375,0.0469 -0.59375,0 -1,-0.0469 -0.390625,-0.0312 -0.625,-0.10938 -0.234375,-0.0781 -0.34375,-0.1875 -0.09375,-0.125 -0.09375,-0.28125 v -16.26562 h -7.53125 v 16.26562 q 0,0.15625 -0.109375,0.28125 -0.09375,0.10938 -0.328125,0.1875 -0.234375,0.0781 -0.625,0.10938 -0.390625,0.0469 -1,0.0469 -0.59375,0 -1,-0.0469 -0.390625,-0.0312 -0.625,-0.10938 -0.234375,-0.0781 -0.328125,-0.1875 -0.09375,-0.125 -0.09375,-0.28125 v -18.39062 q 0,-0.65625 0.328125,-0.96875 0.328125,-0.32813 0.875,-0.32813 h 13.359375 q 0.5625,0 0.875,0.32813 0.3125,0.3125 0.3125,0.96875 z"
       style="font-style:normal;font-variant:normal;font-weight:bold;font-stretch:normal;font-size:32px;font-family:Calibri;-inkscape-font-specification:'Calibri Bold';fill:#666666"
       id="path1115" />
    <path
       d="m 70.692127,542.37189 q 0,0.45312 -0.04687,0.76562 -0.03125,0.29688 -0.109375,0.48438 -0.07813,0.1875 -0.203125,0.28125 -0.109375,0.0781 -0.25,0.0781 h -10.15625 q -0.515625,0 -0.875,-0.29687 -0.34375,-0.3125 -0.34375,-1 v -17.625 q 0,-0.6875 0.34375,-0.98438 0.359375,-0.3125 0.875,-0.3125 h 10.09375 q 0.140625,0 0.25,0.0781 0.109375,0.0781 0.1875,0.28125 0.07813,0.1875 0.109375,0.5 0.04687,0.29687 0.04687,0.76562 0,0.4375 -0.04687,0.75 -0.03125,0.29688 -0.109375,0.48438 -0.07813,0.1875 -0.1875,0.28125 -0.109375,0.0781 -0.25,0.0781 h -7.21875 v 4.9375 h 6.109375 q 0.140625,0 0.25,0.0937 0.125,0.0781 0.203125,0.26563 0.07813,0.17187 0.109375,0.48437 0.04687,0.29688 0.04687,0.73438 0,0.45312 -0.04687,0.75 -0.03125,0.29687 -0.109375,0.48437 -0.07813,0.17188 -0.203125,0.25 -0.109375,0.0781 -0.25,0.0781 h -6.109375 v 5.70312 h 7.28125 q 0.140625,0 0.25,0.0937 0.125,0.0781 0.203125,0.26563 0.07813,0.1875 0.109375,0.5 0.04687,0.29687 0.04687,0.75 z"
       style="font-style:normal;font-variant:normal;font-weight:bold;font-stretch:normal;font-size:32px;font-family:Calibri;-inkscape-font-specification:'Calibri Bold';fill:#666666"
       id="path1117" />
    <path
       d="m 88.176502,529.90314 q 0,1.70312 -0.53125,3.01562 -0.53125,1.3125 -1.546875,2.21875 -1.015625,0.89063 -2.5,1.35938 -1.46875,0.46875 -3.46875,0.46875 h -1.6875 v 6.45312 q 0,0.15625 -0.109375,0.28125 -0.09375,0.125 -0.328125,0.20313 -0.234375,0.0781 -0.625,0.125 -0.390625,0.0469 -1,0.0469 -0.59375,0 -1,-0.0469 -0.390625,-0.0469 -0.625,-0.125 -0.234375,-0.0781 -0.328125,-0.20313 -0.09375,-0.125 -0.09375,-0.28125 v -18.1875 q 0,-0.73437 0.375,-1.09375 0.390625,-0.375 1.015625,-0.375 h 4.765625 q 0.71875,0 1.359375,0.0625 0.65625,0.0469 1.5625,0.23438 0.90625,0.17187 1.828125,0.65625 0.9375,0.48437 1.59375,1.23437 0.65625,0.73438 1,1.73438 0.34375,0.98437 0.34375,2.21875 z m -4.296875,0.29687 q 0,-1.0625 -0.375,-1.75 -0.375,-0.6875 -0.921875,-1.01562 -0.546875,-0.32813 -1.15625,-0.40625 -0.59375,-0.0937 -1.234375,-0.0937 h -1.75 v 6.85937 h 1.84375 q 0.984375,0 1.640625,-0.26562 0.671875,-0.26563 1.09375,-0.73438 0.421875,-0.48437 0.640625,-1.14062 0.21875,-0.67188 0.21875,-1.45313 z"
       style="font-style:normal;font-variant:normal;font-weight:bold;font-stretch:normal;font-size:32px;font-family:Calibri;-inkscape-font-specification:'Calibri Bold';fill:#666666"
       id="path1119" />
    <path
       d="m 103.37963,542.37189 q 0,0.45312 -0.0469,0.76562 -0.0312,0.29688 -0.10937,0.48438 -0.0781,0.1875 -0.20313,0.28125 -0.10937,0.0781 -0.25,0.0781 H 92.614002 q -0.515625,0 -0.875,-0.29687 -0.34375,-0.3125 -0.34375,-1 v -17.625 q 0,-0.6875 0.34375,-0.98438 0.359375,-0.3125 0.875,-0.3125 h 10.093748 q 0.14063,0 0.25,0.0781 0.10938,0.0781 0.1875,0.28125 0.0781,0.1875 0.10938,0.5 0.0469,0.29687 0.0469,0.76562 0,0.4375 -0.0469,0.75 -0.0312,0.29688 -0.10938,0.48438 -0.0781,0.1875 -0.1875,0.28125 -0.10937,0.0781 -0.25,0.0781 h -7.218748 v 4.9375 h 6.109378 q 0.14062,0 0.25,0.0937 0.125,0.0781 0.20312,0.26563 0.0781,0.17187 0.10938,0.48437 0.0469,0.29688 0.0469,0.73438 0,0.45312 -0.0469,0.75 -0.0312,0.29687 -0.10938,0.48437 -0.0781,0.17188 -0.20312,0.25 -0.10938,0.0781 -0.25,0.0781 h -6.109378 v 5.70312 h 7.281248 q 0.14063,0 0.25,0.0937 0.125,0.0781 0.20313,0.26563 0.0781,0.1875 0.10937,0.5 0.0469,0.29687 0.0469,0.75 z"
       style="font-style:normal;font-variant:normal;font-weight:bold;font-stretch:normal;font-size:32px;font-family:Calibri;-inkscape-font-specification:'Calibri Bold';fill:#666666"
       id="path1121" />
    <path
       d="m 130.58275,543.41876 q 0,0.15625 -0.0937,0.28125 -0.0781,0.125 -0.3125,0.20313 -0.21875,0.0781 -0.59375,0.125 -0.375,0.0469 -0.95312,0.0469 -0.5625,0 -0.9375,-0.0469 -0.375,-0.0469 -0.59375,-0.125 -0.21875,-0.0781 -0.3125,-0.20313 -0.0937,-0.125 -0.0937,-0.28125 v -16.45312 h -0.0312 l -5.85938,16.4375 q -0.0625,0.20312 -0.20312,0.34375 -0.14063,0.125 -0.39063,0.20312 -0.23437,0.0781 -0.60937,0.0937 -0.375,0.0312 -0.90625,0.0312 -0.53125,0 -0.90625,-0.0469 -0.375,-0.0312 -0.625,-0.10938 -0.23438,-0.0937 -0.375,-0.21875 -0.14063,-0.125 -0.1875,-0.29687 l -5.65625,-16.4375 h -0.0312 v 16.45312 q 0,0.15625 -0.0937,0.28125 -0.0781,0.125 -0.3125,0.20313 -0.23438,0.0781 -0.60938,0.125 -0.35937,0.0469 -0.9375,0.0469 -0.5625,0 -0.9375,-0.0469 -0.375,-0.0469 -0.60937,-0.125 -0.21875,-0.0781 -0.3125,-0.20313 -0.0781,-0.125 -0.0781,-0.28125 v -18.01562 q 0,-0.79688 0.42188,-1.21875 0.42187,-0.42188 1.125,-0.42188 h 2.6875 q 0.71875,0 1.23437,0.125 0.51563,0.10938 0.89063,0.39063 0.375,0.26562 0.625,0.71875 0.25,0.4375 0.4375,1.09375 l 4.375,12.04687 h 0.0625 l 4.53125,-12.01562 q 0.20312,-0.65625 0.4375,-1.10938 0.25,-0.45312 0.5625,-0.73437 0.32812,-0.28125 0.76562,-0.39063 0.4375,-0.125 1.01563,-0.125 h 2.76562 q 0.42188,0 0.71875,0.10938 0.3125,0.10937 0.5,0.32812 0.20313,0.20313 0.29688,0.51563 0.10937,0.29687 0.10937,0.6875 z"
       style="font-style:normal;font-variant:normal;font-weight:bold;font-stretch:normal;font-size:32px;font-family:Calibri;-inkscape-font-specification:'Calibri Bold';fill:#666666"
       id="path1123" />
    <path
       d="m 153.20775,533.63751 q 0,2.51563 -0.625,4.5 -0.625,1.98438 -1.85937,3.375 -1.23438,1.375 -3.0625,2.10938 -1.8125,0.71875 -4.20313,0.71875 -2.35937,0 -4.125,-0.60938 -1.75,-0.625 -2.92187,-1.89062 -1.17188,-1.26563 -1.76563,-3.21875 -0.57812,-1.95313 -0.57812,-4.625 0,-2.45313 0.625,-4.40625 0.625,-1.96875 1.85937,-3.34375 1.23438,-1.375 3.04688,-2.10938 1.82812,-0.73437 4.23437,-0.73437 2.29688,0 4.04688,0.60937 1.76562,0.60938 2.9375,1.875 1.1875,1.26563 1.78125,3.20313 0.60937,1.92187 0.60937,4.54687 z m -4.3125,0.21875 q 0,-1.59375 -0.25,-2.89062 -0.25,-1.3125 -0.85937,-2.23438 -0.59375,-0.9375 -1.59375,-1.4375 -1,-0.51562 -2.5,-0.51562 -1.51563,0 -2.53125,0.57812 -1.01563,0.5625 -1.64063,1.51563 -0.625,0.95312 -0.89062,2.23437 -0.25,1.26563 -0.25,2.6875 0,1.65625 0.25,2.98438 0.25,1.3125 0.84375,2.25 0.59375,0.9375 1.59375,1.4375 1,0.48437 2.51562,0.48437 1.51563,0 2.53125,-0.5625 1.01563,-0.5625 1.64063,-1.53125 0.625,-0.96875 0.875,-2.25 0.26562,-1.29687 0.26562,-2.75 z"
       style="font-style:normal;font-variant:normal;font-weight:bold;font-stretch:normal;font-size:32px;font-family:Calibri;-inkscape-font-specification:'Calibri Bold';fill:#666666"
       id="path1125" />
    <path
       d="m 168.09838,525.46564 q 0,0.46875 -0.0469,0.79687 -0.0312,0.3125 -0.10937,0.51563 -0.0781,0.1875 -0.20313,0.28125 -0.10937,0.0781 -0.26562,0.0781 h -6.70313 v 16.3125 q 0,0.15625 -0.10937,0.28125 -0.0937,0.10938 -0.32813,0.1875 -0.23437,0.0781 -0.625,0.10938 -0.39062,0.0469 -1,0.0469 -0.59375,0 -1,-0.0469 -0.39062,-0.0312 -0.625,-0.10938 -0.23437,-0.0781 -0.34375,-0.1875 -0.0937,-0.125 -0.0937,-0.28125 v -18.39062 q 0,-0.65625 0.32813,-0.96875 0.34375,-0.32813 0.89062,-0.32813 h 9.60938 q 0.3125,0 0.46875,0.39063 0.15625,0.39062 0.15625,1.3125 z"
       style="font-style:normal;font-variant:normal;font-weight:bold;font-stretch:normal;font-size:32px;font-family:Calibri;-inkscape-font-specification:'Calibri Bold';fill:#666666"
       id="path1127" />
    <path
       d="m 186.91088,543.45001 q 0,0.15625 -0.10938,0.28125 -0.0937,0.10938 -0.32812,0.1875 -0.23438,0.0781 -0.64063,0.10938 -0.39062,0.0469 -0.98437,0.0469 -0.59375,0 -1,-0.0469 -0.39063,-0.0312 -0.625,-0.10938 -0.21875,-0.0781 -0.3125,-0.1875 -0.0937,-0.125 -0.0937,-0.28125 v -10.65625 q 0,-0.60937 0.0156,-1.1875 0.0156,-0.59375 0.0469,-1.04687 h -0.0312 q -0.125,0.21875 -0.29688,0.51562 -0.17187,0.28125 -0.375,0.60938 -0.1875,0.3125 -0.40625,0.65625 -0.21875,0.32812 -0.4375,0.64062 l -7.03125,10.48438 q -0.125,0.17187 -0.26562,0.29687 -0.125,0.125 -0.34375,0.20313 -0.20313,0.0625 -0.51563,0.0781 -0.29687,0.0312 -0.78125,0.0312 -0.60937,0 -0.98437,-0.0469 -0.375,-0.0312 -0.59375,-0.10938 -0.20313,-0.0781 -0.28125,-0.20312 -0.0781,-0.125 -0.0781,-0.29688 v -19.125 q 0,-0.15625 0.0937,-0.26562 0.10938,-0.125 0.34375,-0.20313 0.25,-0.0781 0.64063,-0.10937 0.39062,-0.0469 0.98437,-0.0469 0.60938,0 1,0.0469 0.39063,0.0312 0.625,0.10937 0.23438,0.0781 0.32813,0.20313 0.0937,0.10937 0.0937,0.26562 v 10.71875 q 0,0.5 -0.0156,1.0625 -0.0156,0.5625 -0.0469,1.09375 h 0.0312 q 0.26562,-0.46875 0.67187,-1.125 0.40625,-0.65625 0.84375,-1.28125 l 7.03125,-10.48437 q 0.10938,-0.15625 0.23438,-0.26563 0.125,-0.125 0.32812,-0.20312 0.21875,-0.0781 0.53125,-0.10938 0.3125,-0.0312 0.79688,-0.0312 0.59375,0 0.95312,0.0469 0.375,0.0312 0.59375,0.10937 0.21875,0.0781 0.29688,0.20313 0.0937,0.10937 0.0937,0.28125 z"
       style="font-style:normal;font-variant:normal;font-weight:bold;font-stretch:normal;font-size:32px;font-family:Calibri;-inkscape-font-specification:'Calibri Bold';fill:#666666"
       id="path1129" />
  </g>
  <g
     aria-label="ЛЬОНОКОМБІНАТ "
     style="font-style:normal;font-variant:normal;font-weight:700;font-size:14.6875px;line-height:125%;font-family:Calibri;text-align:start;letter-spacing:0px;word-spacing:0px;text-anchor:start;fill:#666666;fill-opacity:1;stroke:none"
     id="text1014">
    <path
       d="m 1080.5428,882.83917 q 0,0.15625 -0.094,0.28125 -0.094,0.10938 -0.3281,0.1875 -0.2344,0.0781 -0.6407,0.10938 -0.3906,0.0469 -0.9843,0.0469 -0.6094,0 -1,-0.0469 -0.3907,-0.0312 -0.625,-0.10938 -0.2344,-0.0781 -0.3282,-0.1875 -0.094,-0.125 -0.094,-0.28125 v -16.3125 h -4.3438 q -0.4375,3.57813 -0.8906,6.25 -0.4531,2.67188 -0.9687,4.57813 -0.5157,1.90625 -1.1407,3.125 -0.6093,1.21875 -1.4062,1.9375 -0.7813,0.70312 -1.7813,0.96875 -0.9843,0.26562 -2.25,0.26562 -0.2343,0 -0.4062,-0.0625 -0.1719,-0.0625 -0.2813,-0.23437 -0.094,-0.17188 -0.1406,-0.48438 -0.047,-0.3125 -0.047,-0.79687 0,-0.67188 0.031,-1.07813 0.031,-0.42187 0.1094,-0.64062 0.078,-0.23438 0.2031,-0.3125 0.125,-0.0781 0.2969,-0.0781 0.4843,0 0.9218,-0.1875 0.4532,-0.20312 0.8594,-0.78125 0.4219,-0.57812 0.7969,-1.625 0.3906,-1.04687 0.75,-2.75 0.375,-1.71875 0.7344,-4.17187 0.375,-2.46875 0.75,-5.85938 0.094,-0.79687 0.375,-1.10937 0.2812,-0.32813 0.8281,-0.32813 h 9.9219 q 0.5625,0 0.8593,0.32813 0.3125,0.3125 0.3125,0.96875 z"
       style="font-size:32px;fill:#666666"
       id="path1088" />
    <path
       d="m 1099.8397,876.6673 q 0,1.4375 -0.4375,2.64062 -0.4219,1.20313 -1.3906,2.10938 -0.9531,0.89062 -2.5,1.42187 -1.5469,0.53125 -4.2344,0.53125 h -5.0469 q -0.2656,0 -0.5,-0.0625 -0.2187,-0.0781 -0.3906,-0.23437 -0.1719,-0.17188 -0.2812,-0.40625 -0.094,-0.25 -0.094,-0.59375 v -18.39063 q 0,-0.15625 0.094,-0.26562 0.1093,-0.125 0.3437,-0.20313 0.25,-0.0781 0.6406,-0.10937 0.4063,-0.0469 0.9844,-0.0469 0.6094,0 1,0.0469 0.3906,0.0312 0.625,0.10937 0.2344,0.0781 0.3281,0.20313 0.094,0.10937 0.094,0.26562 v 6.89063 h 2.8281 q 2.2969,0 3.6563,0.40625 1.3593,0.39062 2.2968,1.17187 0.9532,0.78125 1.4688,1.92188 0.5156,1.14062 0.5156,2.59375 z m -4.2187,0.34375 q 0,-0.76563 -0.2188,-1.35938 -0.2187,-0.59375 -0.6719,-1.01562 -0.4531,-0.42188 -1.1718,-0.64063 -0.7032,-0.23437 -2.1094,-0.23437 h -2.375 v 6.42187 h 2.4531 q 1.4688,0 2.1875,-0.28125 0.7344,-0.29687 1.1406,-0.75 0.4063,-0.46875 0.5782,-1.03125 0.1875,-0.5625 0.1875,-1.10937 z"
       style="font-size:32px;fill:#666666"
       id="path1090" />
    <path
       d="m 1120.8397,873.02667 q 0,2.51563 -0.625,4.5 -0.625,1.98438 -1.8594,3.375 -1.2343,1.375 -3.0625,2.10938 -1.8125,0.71875 -4.2031,0.71875 -2.3594,0 -4.125,-0.60938 -1.75,-0.625 -2.9219,-1.89062 -1.1718,-1.26563 -1.7656,-3.21875 -0.5781,-1.95313 -0.5781,-4.625 0,-2.45313 0.625,-4.40625 0.625,-1.96875 1.8594,-3.34375 1.2343,-1.375 3.0468,-2.10938 1.8282,-0.73437 4.2344,-0.73437 2.2969,0 4.0469,0.60937 1.7656,0.60938 2.9375,1.875 1.1875,1.26563 1.7812,3.20313 0.6094,1.92187 0.6094,4.54687 z m -4.3125,0.21875 q 0,-1.59375 -0.25,-2.89062 -0.25,-1.3125 -0.8594,-2.23438 -0.5937,-0.9375 -1.5937,-1.4375 -1,-0.51562 -2.5,-0.51562 -1.5156,0 -2.5313,0.57812 -1.0156,0.5625 -1.6406,1.51563 -0.625,0.95312 -0.8906,2.23437 -0.25,1.26563 -0.25,2.6875 0,1.65625 0.25,2.98438 0.25,1.3125 0.8437,2.25 0.5938,0.9375 1.5938,1.4375 1,0.48437 2.5156,0.48437 1.5156,0 2.5313,-0.5625 1.0156,-0.5625 1.6406,-1.53125 0.625,-0.96875 0.875,-2.25 0.2656,-1.29687 0.2656,-2.75 z"
       style="font-size:32px;fill:#666666"
       id="path1092" />
    <path
       d="m 1140.0585,882.80792 q 0,0.15625 -0.1094,0.28125 -0.094,0.125 -0.3281,0.20313 -0.2344,0.0781 -0.625,0.125 -0.3907,0.0469 -0.9844,0.0469 -0.6094,0 -1.0156,-0.0469 -0.3907,-0.0469 -0.625,-0.125 -0.2188,-0.0781 -0.3282,-0.20313 -0.094,-0.125 -0.094,-0.28125 v -8.17187 h -7.5625 v 8.17187 q 0,0.15625 -0.094,0.28125 -0.094,0.125 -0.3281,0.20313 -0.2344,0.0781 -0.625,0.125 -0.3906,0.0469 -1,0.0469 -0.5937,0 -1,-0.0469 -0.3906,-0.0469 -0.625,-0.125 -0.2344,-0.0781 -0.3437,-0.20313 -0.094,-0.125 -0.094,-0.28125 v -19.09375 q 0,-0.15625 0.094,-0.28125 0.1093,-0.125 0.3437,-0.20312 0.2344,-0.0781 0.625,-0.125 0.4063,-0.0469 1,-0.0469 0.6094,0 1,0.0469 0.3906,0.0469 0.625,0.125 0.2344,0.0781 0.3281,0.20312 0.094,0.125 0.094,0.28125 v 7.42188 h 7.5625 v -7.42188 q 0,-0.15625 0.094,-0.28125 0.1094,-0.125 0.3282,-0.20312 0.2343,-0.0781 0.625,-0.125 0.4062,-0.0469 1.0156,-0.0469 0.5937,0 0.9844,0.0469 0.3906,0.0469 0.625,0.125 0.2343,0.0781 0.3281,0.20312 0.1094,0.125 0.1094,0.28125 z"
       style="font-size:32px;fill:#666666"
       id="path1094" />
    <path
       d="m 1162.6522,873.02667 q 0,2.51563 -0.625,4.5 -0.625,1.98438 -1.8594,3.375 -1.2343,1.375 -3.0625,2.10938 -1.8125,0.71875 -4.2031,0.71875 -2.3594,0 -4.125,-0.60938 -1.75,-0.625 -2.9219,-1.89062 -1.1718,-1.26563 -1.7656,-3.21875 -0.5781,-1.95313 -0.5781,-4.625 0,-2.45313 0.625,-4.40625 0.625,-1.96875 1.8594,-3.34375 1.2343,-1.375 3.0468,-2.10938 1.8282,-0.73437 4.2344,-0.73437 2.2969,0 4.0469,0.60937 1.7656,0.60938 2.9375,1.875 1.1875,1.26563 1.7812,3.20313 0.6094,1.92187 0.6094,4.54687 z m -4.3125,0.21875 q 0,-1.59375 -0.25,-2.89062 -0.25,-1.3125 -0.8594,-2.23438 -0.5937,-0.9375 -1.5937,-1.4375 -1,-0.51562 -2.5,-0.51562 -1.5156,0 -2.5313,0.57812 -1.0156,0.5625 -1.6406,1.51563 -0.625,0.95312 -0.8906,2.23437 -0.25,1.26563 -0.25,2.6875 0,1.65625 0.25,2.98438 0.25,1.3125 0.8437,2.25 0.5938,0.9375 1.5938,1.4375 1,0.48437 2.5156,0.48437 1.5156,0 2.5313,-0.5625 1.0156,-0.5625 1.6406,-1.53125 0.625,-0.96875 0.875,-2.25 0.2656,-1.29687 0.2656,-2.75 z"
       style="font-size:32px;fill:#666666"
       id="path1096" />
    <path
       d="m 1181.0585,882.82355 q 0,0.17187 -0.094,0.29687 -0.094,0.10938 -0.3437,0.1875 -0.2344,0.0781 -0.6407,0.10938 -0.4062,0.0469 -1.0468,0.0469 -0.6719,0 -1.0938,-0.0469 -0.4062,-0.0312 -0.6562,-0.10938 -0.25,-0.0937 -0.375,-0.23437 -0.125,-0.15625 -0.1875,-0.375 l -1.625,-4.5 q -0.3438,-0.98438 -0.7188,-1.64063 -0.375,-0.67187 -0.8281,-1.07812 -0.4531,-0.42188 -1.0313,-0.59375 -0.5781,-0.17188 -1.2968,-0.17188 h -0.9219 v 8.09375 q 0,0.17188 -0.094,0.29688 -0.094,0.10937 -0.3281,0.20312 -0.2344,0.0781 -0.625,0.10938 -0.3906,0.0469 -1,0.0469 -0.5937,0 -1,-0.0469 -0.3906,-0.0312 -0.625,-0.10938 -0.2344,-0.0937 -0.3437,-0.20312 -0.094,-0.125 -0.094,-0.29688 v -19.10937 q 0,-0.17188 0.094,-0.28125 0.1093,-0.125 0.3437,-0.20313 0.2344,-0.0781 0.625,-0.10937 0.4063,-0.0469 1,-0.0469 0.6094,0 1,0.0469 0.3906,0.0312 0.625,0.10937 0.2344,0.0781 0.3281,0.20313 0.094,0.10937 0.094,0.28125 v 7.59375 h 0.9219 q 0.7031,0 1.2343,-0.1875 0.5313,-0.1875 0.9532,-0.59375 0.4375,-0.40625 0.7812,-1.04688 0.3594,-0.65625 0.6875,-1.60937 l 1.3594,-4.03125 q 0.078,-0.21875 0.1875,-0.35938 0.1094,-0.15625 0.3437,-0.23437 0.25,-0.0937 0.6407,-0.125 0.4062,-0.0469 1.0781,-0.0469 0.6094,0 1,0.0469 0.4062,0.0312 0.625,0.10937 0.2344,0.0625 0.3125,0.1875 0.078,0.10938 0.078,0.28125 0,0.20313 -0.078,0.5 -0.062,0.29688 -0.2344,0.78125 l -1.3594,3.59375 q -0.375,1 -0.75,1.70313 -0.375,0.70312 -0.7968,1.20312 -0.4063,0.48438 -0.875,0.79688 -0.4532,0.3125 -1.0157,0.51562 v 0.0156 q 0.625,0.26562 1.125,0.60937 0.5157,0.32813 0.9532,0.84375 0.4531,0.51563 0.8593,1.26563 0.4063,0.75 0.8282,1.84375 l 1.6562,4.1875 q 0.25,0.64062 0.2969,0.89062 0.047,0.23438 0.047,0.39063 z"
       style="font-size:32px;fill:#666666"
       id="path1098" />
    <path
       d="m 1201.4647,873.02667 q 0,2.51563 -0.625,4.5 -0.625,1.98438 -1.8594,3.375 -1.2343,1.375 -3.0625,2.10938 -1.8125,0.71875 -4.2031,0.71875 -2.3594,0 -4.125,-0.60938 -1.75,-0.625 -2.9219,-1.89062 -1.1718,-1.26563 -1.7656,-3.21875 -0.5781,-1.95313 -0.5781,-4.625 0,-2.45313 0.625,-4.40625 0.625,-1.96875 1.8594,-3.34375 1.2343,-1.375 3.0468,-2.10938 1.8282,-0.73437 4.2344,-0.73437 2.2969,0 4.0469,0.60937 1.7656,0.60938 2.9375,1.875 1.1875,1.26563 1.7812,3.20313 0.6094,1.92187 0.6094,4.54687 z m -4.3125,0.21875 q 0,-1.59375 -0.25,-2.89062 -0.25,-1.3125 -0.8594,-2.23438 -0.5937,-0.9375 -1.5937,-1.4375 -1,-0.51562 -2.5,-0.51562 -1.5156,0 -2.5313,0.57812 -1.0156,0.5625 -1.6406,1.51563 -0.625,0.95312 -0.8906,2.23437 -0.25,1.26563 -0.25,2.6875 0,1.65625 0.25,2.98438 0.25,1.3125 0.8437,2.25 0.5938,0.9375 1.5938,1.4375 1,0.48437 2.5156,0.48437 1.5156,0 2.5313,-0.5625 1.0156,-0.5625 1.6406,-1.53125 0.625,-0.96875 0.875,-2.25 0.2656,-1.29687 0.2656,-2.75 z"
       style="font-size:32px;fill:#666666"
       id="path1100" />
    <path
       d="m 1228.4647,882.80792 q 0,0.15625 -0.094,0.28125 -0.078,0.125 -0.3125,0.20313 -0.2188,0.0781 -0.5938,0.125 -0.375,0.0469 -0.9531,0.0469 -0.5625,0 -0.9375,-0.0469 -0.375,-0.0469 -0.5938,-0.125 -0.2187,-0.0781 -0.3125,-0.20313 -0.094,-0.125 -0.094,-0.28125 V 866.3548 h -0.031 l -5.8593,16.4375 q -0.062,0.20312 -0.2032,0.34375 -0.1406,0.125 -0.3906,0.20312 -0.2344,0.0781 -0.6094,0.0937 -0.375,0.0312 -0.9062,0.0312 -0.5313,0 -0.9063,-0.0469 -0.375,-0.0312 -0.625,-0.10938 -0.2343,-0.0937 -0.375,-0.21875 -0.1406,-0.125 -0.1875,-0.29687 l -5.6562,-16.4375 h -0.031 v 16.45312 q 0,0.15625 -0.094,0.28125 -0.078,0.125 -0.3125,0.20313 -0.2344,0.0781 -0.6094,0.125 -0.3594,0.0469 -0.9375,0.0469 -0.5625,0 -0.9375,-0.0469 -0.375,-0.0469 -0.6094,-0.125 -0.2187,-0.0781 -0.3125,-0.20313 -0.078,-0.125 -0.078,-0.28125 V 864.7923 q 0,-0.79688 0.4219,-1.21875 0.4219,-0.42188 1.125,-0.42188 h 2.6875 q 0.7187,0 1.2344,0.125 0.5156,0.10938 0.8906,0.39063 0.375,0.26562 0.625,0.71875 0.25,0.4375 0.4375,1.09375 l 4.375,12.04687 h 0.062 l 4.5312,-12.01562 q 0.2032,-0.65625 0.4375,-1.10938 0.25,-0.45312 0.5625,-0.73437 0.3282,-0.28125 0.7657,-0.39063 0.4375,-0.125 1.0156,-0.125 h 2.7656 q 0.4219,0 0.7188,0.10938 0.3125,0.10937 0.5,0.32812 0.2031,0.20313 0.2968,0.51563 0.1094,0.29687 0.1094,0.6875 z"
       style="font-size:32px;fill:#666666"
       id="path1102" />
    <path
       d="m 1247.5585,877.1048 q 0,1.375 -0.4688,2.51562 -0.4687,1.14063 -1.4219,1.98438 -0.9375,0.82812 -2.3906,1.29687 -1.4531,0.46875 -3.7656,0.46875 h -5.3281 q -0.5625,0 -0.9219,-0.29687 -0.3438,-0.3125 -0.3438,-1.04688 v -17.57812 q 0,-0.6875 0.3438,-0.98438 0.3594,-0.3125 0.875,-0.3125 h 11.4375 q 0.1562,0 0.2656,0.0781 0.125,0.0781 0.2031,0.28125 0.094,0.1875 0.125,0.5 0.047,0.29687 0.047,0.76562 0,0.4375 -0.047,0.75 -0.031,0.29688 -0.125,0.5 -0.078,0.1875 -0.2031,0.28125 -0.1094,0.0781 -0.25,0.0781 h -8.5625 v 5.03125 h 3.3594 q 1.9531,0 3.2187,0.375 1.2657,0.375 2.1407,1.10937 0.875,0.73438 1.3437,1.79688 0.4688,1.0625 0.4688,2.40625 z m -4.1719,0.26562 q 0,-0.67187 -0.2188,-1.20312 -0.2187,-0.54688 -0.6406,-0.92188 -0.4219,-0.39062 -1.0937,-0.59375 -0.6563,-0.20312 -1.7657,-0.20312 h -2.6406 v 5.82812 h 2.6875 q 1,0 1.6406,-0.1875 0.6563,-0.1875 1.0938,-0.5625 0.4375,-0.375 0.6875,-0.92187 0.25,-0.54688 0.25,-1.23438 z"
       style="font-size:32px;fill:#666666"
       id="path1104" />
    <path
       d="m 1254.8397,882.80792 q 0,0.15625 -0.1094,0.28125 -0.094,0.125 -0.3281,0.20313 -0.2344,0.0781 -0.625,0.125 -0.3906,0.0469 -1,0.0469 -0.5937,0 -1,-0.0469 -0.3906,-0.0469 -0.625,-0.125 -0.2344,-0.0781 -0.3437,-0.20313 -0.094,-0.125 -0.094,-0.28125 v -19.09375 q 0,-0.15625 0.094,-0.28125 0.1093,-0.125 0.3437,-0.20312 0.25,-0.0781 0.6406,-0.125 0.3907,-0.0469 0.9844,-0.0469 0.6094,0 1,0.0469 0.3906,0.0469 0.625,0.125 0.2344,0.0781 0.3281,0.20312 0.1094,0.125 0.1094,0.28125 z"
       style="font-size:32px;fill:#666666"
       id="path1106" />
    <path
       d="m 1275.0585,882.80792 q 0,0.15625 -0.1094,0.28125 -0.094,0.125 -0.3281,0.20313 -0.2344,0.0781 -0.625,0.125 -0.3907,0.0469 -0.9844,0.0469 -0.6094,0 -1.0156,-0.0469 -0.3907,-0.0469 -0.625,-0.125 -0.2188,-0.0781 -0.3282,-0.20313 -0.094,-0.125 -0.094,-0.28125 v -8.17187 h -7.5625 v 8.17187 q 0,0.15625 -0.094,0.28125 -0.094,0.125 -0.3281,0.20313 -0.2344,0.0781 -0.625,0.125 -0.3906,0.0469 -1,0.0469 -0.5937,0 -1,-0.0469 -0.3906,-0.0469 -0.625,-0.125 -0.2344,-0.0781 -0.3437,-0.20313 -0.094,-0.125 -0.094,-0.28125 v -19.09375 q 0,-0.15625 0.094,-0.28125 0.1093,-0.125 0.3437,-0.20312 0.2344,-0.0781 0.625,-0.125 0.4063,-0.0469 1,-0.0469 0.6094,0 1,0.0469 0.3906,0.0469 0.625,0.125 0.2344,0.0781 0.3281,0.20312 0.094,0.125 0.094,0.28125 v 7.42188 h 7.5625 v -7.42188 q 0,-0.15625 0.094,-0.28125 0.1094,-0.125 0.3282,-0.20312 0.2343,-0.0781 0.625,-0.125 0.4062,-0.0469 1.0156,-0.0469 0.5937,0 0.9844,0.0469 0.3906,0.0469 0.625,0.125 0.2343,0.0781 0.3281,0.20312 0.1094,0.125 0.1094,0.28125 z"
       style="font-size:32px;fill:#666666"
       id="path1108" />
    <path
       d="m 1296.0272,881.83917 q 0.1875,0.5625 0.2344,0.89063 0.047,0.32812 -0.125,0.5 -0.1719,0.15625 -0.6094,0.1875 -0.4375,0.0469 -1.2031,0.0469 -0.7969,0 -1.25,-0.0312 -0.4375,-0.0156 -0.6719,-0.0781 -0.2344,-0.0781 -0.3281,-0.20313 -0.094,-0.125 -0.1563,-0.32812 l -1.3593,-4.0625 h -7.5938 l -1.2812,3.95312 q -0.062,0.21875 -0.1719,0.375 -0.094,0.14063 -0.3281,0.23438 -0.2188,0.0781 -0.6407,0.10937 -0.4062,0.0312 -1.0781,0.0312 -0.7187,0 -1.125,-0.0469 -0.4062,-0.0469 -0.5625,-0.21875 -0.1562,-0.1875 -0.1094,-0.51563 0.047,-0.32812 0.2344,-0.875 l 6.2344,-17.9375 q 0.094,-0.26562 0.2187,-0.42187 0.125,-0.17188 0.3907,-0.25 0.2812,-0.0937 0.7656,-0.10938 0.4844,-0.0312 1.2812,-0.0312 0.9219,0 1.4688,0.0312 0.5469,0.0156 0.8437,0.10938 0.3125,0.0781 0.4375,0.25 0.1407,0.17187 0.2344,0.46875 z m -9.2812,-14.82812 h -0.016 l -2.8593,8.59375 h 5.7343 z"
       style="font-size:32px;fill:#666666"
       id="path1110" />
    <path
       d="m 1310.1053,864.83917 q 0,0.45313 -0.047,0.78125 -0.031,0.3125 -0.1094,0.51563 -0.078,0.1875 -0.2031,0.28125 -0.1094,0.0937 -0.25,0.0937 h -5.0625 v 16.29687 q 0,0.15625 -0.1094,0.28125 -0.094,0.125 -0.3281,0.20313 -0.2344,0.0781 -0.6407,0.125 -0.3906,0.0469 -0.9843,0.0469 -0.5938,0 -1,-0.0469 -0.3907,-0.0469 -0.625,-0.125 -0.2344,-0.0781 -0.3438,-0.20313 -0.094,-0.125 -0.094,-0.28125 v -16.29687 h -5.0625 q -0.1563,0 -0.2657,-0.0937 -0.1093,-0.0937 -0.1875,-0.28125 -0.078,-0.20313 -0.125,-0.51563 -0.031,-0.32812 -0.031,-0.78125 0,-0.46875 0.031,-0.79687 0.047,-0.32813 0.125,-0.51563 0.078,-0.20312 0.1875,-0.28125 0.1094,-0.0937 0.2657,-0.0937 h 14.25 q 0.1406,0 0.25,0.0937 0.125,0.0781 0.2031,0.28125 0.078,0.1875 0.1094,0.51563 0.047,0.32812 0.047,0.79687 z"
       style="font-size:32px;fill:#666666"
       id="path1112" />
  </g>
  <g
     aria-label="ДЕПО "
     style="font-style:normal;font-variant:normal;font-weight:400;font-size:31.9375px;line-height:125%;font-family:Calibri;text-align:start;letter-spacing:0px;word-spacing:0px;text-anchor:start;fill:#666666;fill-opacity:1;stroke:none"
     id="text1064">
    <path
       d="m 874.32397,515.24673 q 0,0.15595 -0.078,0.26511 -0.078,0.10916 -0.2807,0.17154 -0.20273,0.078 -0.54581,0.10916 -0.34307,0.0468 -0.88888,0.0468 -0.53021,0 -0.87329,-0.0468 -0.32749,-0.0312 -0.54581,-0.10916 -0.20273,-0.0624 -0.29629,-0.17154 -0.078,-0.10916 -0.078,-0.26511 v -4.75631 h -13.42685 v 4.75631 q 0,0.15595 -0.0936,0.26511 -0.078,0.10916 -0.2963,0.17154 -0.20273,0.078 -0.5458,0.10916 -0.34308,0.0468 -0.8733,0.0468 -0.53021,0 -0.87329,-0.0468 -0.34308,-0.0312 -0.5614,-0.10916 -0.20273,-0.0624 -0.2807,-0.17154 -0.078,-0.10916 -0.078,-0.26511 v -7.25143 q -0.0312,-0.45224 0.15594,-0.63937 0.20273,-0.20273 0.59259,-0.20273 h 0.93567 q 0.37427,-0.53021 0.70175,-1.09162 0.34308,-0.5614 0.65497,-1.32553 0.31189,-0.77972 0.60819,-1.84015 0.31189,-1.07601 0.60818,-2.61987 0.2963,-1.54385 0.59259,-3.64911 0.31189,-2.12085 0.63938,-4.97464 0.0936,-0.70175 0.35867,-1.01364 0.26511,-0.32748 0.81091,-0.32748 h 10.30796 q 0.5458,0 0.85769,0.32748 0.31189,0.31189 0.31189,0.96686 v 15.5477 h 1.71539 q 0.42106,0 0.5926,0.23392 0.17153,0.21832 0.17153,0.62377 z m -6.56527,-21.62954 h -4.70954 q -0.2807,2.37036 -0.5614,4.17932 -0.2651,1.79336 -0.5458,3.15008 -0.26511,1.35672 -0.54581,2.33918 -0.2807,0.98245 -0.577,1.6998 -0.2807,0.71734 -0.59259,1.23196 -0.31189,0.51462 -0.63937,0.93567 h 8.17151 z"
       style="font-style:normal;font-variant:normal;font-weight:bold;font-stretch:normal;font-size:31.9375px;font-family:Calibri;-inkscape-font-specification:'Calibri Bold';fill:#666666"
       id="path1079" />
    <path
       d="m 889.20111,508.88419 q 0,0.45224 -0.0468,0.76413 -0.0312,0.29629 -0.10916,0.48342 -0.078,0.18714 -0.20273,0.28071 -0.10916,0.078 -0.24951,0.078 h -10.13642 q -0.51462,0 -0.87329,-0.2963 -0.34308,-0.31189 -0.34308,-0.99804 V 491.6055 q 0,-0.68616 0.34308,-0.98245 0.35867,-0.31189 0.87329,-0.31189 h 10.07404 q 0.14035,0 0.24951,0.078 0.10916,0.078 0.18713,0.2807 0.078,0.18713 0.10916,0.49902 0.0468,0.2963 0.0468,0.76413 0,0.43665 -0.0468,0.74854 -0.0312,0.29629 -0.10916,0.48343 -0.078,0.18713 -0.18713,0.2807 -0.10916,0.078 -0.24951,0.078 h -7.20465 v 4.92786 h 6.09744 q 0.14035,0 0.24951,0.0936 0.12476,0.078 0.20273,0.26511 0.078,0.17154 0.10916,0.48343 0.0468,0.29629 0.0468,0.73294 0,0.45224 -0.0468,0.74853 -0.0312,0.2963 -0.10916,0.48343 -0.078,0.17154 -0.20273,0.24952 -0.10916,0.078 -0.24951,0.078 h -6.09744 v 5.69198 h 7.26703 q 0.14035,0 0.24951,0.0936 0.12475,0.078 0.20273,0.26511 0.078,0.18713 0.10916,0.49902 0.0468,0.2963 0.0468,0.74854 z"
       style="font-style:normal;font-variant:normal;font-weight:bold;font-stretch:normal;font-size:31.9375px;font-family:Calibri;-inkscape-font-specification:'Calibri Bold';fill:#666666"
       id="path1081" />
    <path
       d="m 908.55386,509.96021 q 0,0.15594 -0.0936,0.2807 -0.0936,0.10916 -0.32749,0.18713 -0.23391,0.078 -0.63937,0.10916 -0.38986,0.0468 -0.98245,0.0468 -0.59259,0 -0.99805,-0.0468 -0.38986,-0.0312 -0.62378,-0.10916 -0.23392,-0.078 -0.34308,-0.18713 -0.0936,-0.12476 -0.0936,-0.2807 v -16.23386 h -7.51654 v 16.23386 q 0,0.15594 -0.10916,0.2807 -0.0936,0.10916 -0.32748,0.18713 -0.23392,0.078 -0.62378,0.10916 -0.38986,0.0468 -0.99805,0.0468 -0.59259,0 -0.99804,-0.0468 -0.38987,-0.0312 -0.62378,-0.10916 -0.23392,-0.078 -0.32749,-0.18713 -0.0936,-0.12476 -0.0936,-0.2807 V 491.6055 q 0,-0.65497 0.32748,-0.96686 0.32748,-0.32748 0.87329,-0.32748 h 13.33328 q 0.5614,0 0.87329,0.32748 0.31189,0.31189 0.31189,0.96686 z"
       style="font-style:normal;font-variant:normal;font-weight:bold;font-stretch:normal;font-size:31.9375px;font-family:Calibri;-inkscape-font-specification:'Calibri Bold';fill:#666666"
       id="path1083" />
    <path
       d="m 931.13467,500.16687 q 0,2.51071 -0.62378,4.49121 -0.62377,1.9805 -1.85574,3.36841 -1.23196,1.37231 -3.05652,2.10525 -1.80896,0.71735 -4.19491,0.71735 -2.35477,0 -4.11695,-0.60818 -1.74658,-0.62378 -2.91616,-1.88694 -1.16959,-1.26315 -1.76218,-3.21246 -0.577,-1.94931 -0.577,-4.61597 0,-2.44833 0.62378,-4.39764 0.62378,-1.96491 1.85575,-3.33722 1.23196,-1.37231 3.04092,-2.10526 1.82455,-0.73294 4.2261,-0.73294 2.29239,0 4.03898,0.60819 1.76217,0.60818 2.93176,1.87134 1.18518,1.26315 1.77777,3.19687 0.60818,1.91812 0.60818,4.53799 z m -4.30407,0.21832 q 0,-1.59063 -0.24951,-2.88498 -0.24952,-1.30993 -0.8577,-2.23001 -0.59259,-0.93567 -1.59064,-1.43469 -0.99805,-0.51462 -2.49512,-0.51462 -1.51266,0 -2.5263,0.577 -1.01364,0.5614 -1.63742,1.51266 -0.62378,0.95127 -0.88889,2.23001 -0.24951,1.26316 -0.24951,2.68225 0,1.65302 0.24951,2.97855 0.24951,1.30994 0.8421,2.24561 0.59259,0.93567 1.59064,1.43469 0.99805,0.48343 2.51071,0.48343 1.51267,0 2.52631,-0.5614 1.01364,-0.5614 1.63742,-1.52826 0.62378,-0.96686 0.87329,-2.24561 0.26511,-1.29434 0.26511,-2.74463 z"
       style="font-style:normal;font-variant:normal;font-weight:bold;font-stretch:normal;font-size:31.9375px;font-family:Calibri;-inkscape-font-specification:'Calibri Bold';fill:#666666"
       id="path1085" />
  </g>
</svg>
