<svg xmlns="http://www.w3.org/2000/svg" viewBox="0 0 420 200" font-family="ui-sans-serif, system-ui, 'PingFang TC', 'Noto Sans TC', sans-serif"><rect width="420" height="200" fill="#fff"/><line x1="46" y1="160" x2="410" y2="160" stroke="#94a3b8" stroke-width="0.8"/><rect x="46.0" y="77.8" width="28.0" height="82.2" fill="#2563eb" opacity="0.85"/><text x="46.0" y="171" font-size="7" fill="#64748b">0%</text><text x="60.0" y="74.8" font-size="6.5" text-anchor="middle" fill="#334155">52</text><rect x="76.0" y="147.3" width="28.0" height="12.7" fill="#2563eb" opacity="0.85"/><text x="76.0" y="171" font-size="7" fill="#64748b">8%</text><text x="90.0" y="144.3" font-size="6.5" text-anchor="middle" fill="#334155">8</text><rect x="106.0" y="133.1" width="28.0" height="26.9" fill="#2563eb" opacity="0.85"/><text x="106.0" y="171" font-size="7" fill="#64748b">17%</text><text x="120.0" y="130.1" font-size="6.5" text-anchor="middle" fill="#334155">17</text><rect x="136.0" y="107.8" width="28.0" height="52.2" fill="#2563eb" opacity="0.85"/><text x="136.0" y="171" font-size="7" fill="#64748b">25%</text><text x="150.0" y="104.8" font-size="6.5" text-anchor="middle" fill="#334155">33</text><rect x="166.0" y="87.3" width="28.0" height="72.7" fill="#2563eb" opacity="0.85"/><text x="166.0" y="171" font-size="7" fill="#64748b">33%</text><text x="180.0" y="84.3" font-size="6.5" text-anchor="middle" fill="#334155">46</text><rect x="196.0" y="24.0" width="28.0" height="136.0" fill="#2563eb" opacity="0.85"/><text x="196.0" y="171" font-size="7" fill="#64748b">42%</text><text x="210.0" y="21.0" font-size="6.5" text-anchor="middle" fill="#334155">86</text><rect x="226.0" y="36.7" width="28.0" height="123.3" fill="#2563eb" opacity="0.85"/><text x="226.0" y="171" font-size="7" fill="#64748b">50%</text><text x="240.0" y="33.7" font-size="6.5" text-anchor="middle" fill="#334155">78</text><rect x="256.0" y="46.1" width="28.0" height="113.9" fill="#2563eb" opacity="0.85"/><text x="256.0" y="171" font-size="7" fill="#64748b">58%</text><text x="270.0" y="43.1" font-size="6.5" text-anchor="middle" fill="#334155">72</text><rect x="286.0" y="49.3" width="28.0" height="110.7" fill="#2563eb" opacity="0.85"/><text x="286.0" y="171" font-size="7" fill="#64748b">67%</text><text x="300.0" y="46.3" font-size="6.5" text-anchor="middle" fill="#334155">70</text><rect x="316.0" y="77.8" width="28.0" height="82.2" fill="#2563eb" opacity="0.85"/><text x="316.0" y="171" font-size="7" fill="#64748b">75%</text><text x="330.0" y="74.8" font-size="6.5" text-anchor="middle" fill="#334155">52</text><rect x="346.0" y="122.0" width="28.0" height="38.0" fill="#2563eb" opacity="0.85"/><text x="346.0" y="171" font-size="7" fill="#64748b">83%</text><text x="360.0" y="119.0" font-size="6.5" text-anchor="middle" fill="#334155">24</text><rect x="376.0" y="93.6" width="28.0" height="66.4" fill="#2563eb" opacity="0.85"/><text x="376.0" y="171" font-size="7" fill="#64748b">92%</text><text x="390.0" y="90.6" font-size="6.5" text-anchor="middle" fill="#334155">42</text><text x="210.0" y="192" text-anchor="middle" font-size="8" fill="#0f172a">多準則爬山適應度改善率（1 − after/before），n = 580 系統，中位數 55%</text><text x="14" y="100.0" transform="rotate(-90 14 100.0)" text-anchor="middle" font-size="7.5" fill="#64748b">系統數</text></svg>